<svg width="30" height="30" viewBox="0 0 30 30" fill="none" xmlns="http://www.w3.org/2000/svg">
<path d="M15 27C21.6281 27 27 21.6281 27 15C27 8.37188 21.6281 3 15 3C8.37188 3 3 8.37188 3 15C3 21.6281 8.37188 27 15 27ZM13.5 10.5C13.5 9.67031 14.1703 9 15 9C15.8297 9 16.5 9.67031 16.5 10.5C16.5 11.3297 15.8297 12 15 12C14.1703 12 13.5 11.3297 13.5 10.5ZM13.125 13.5H15.375C15.9984 13.5 16.5 14.0016 16.5 14.625V18.75H16.875C17.4984 18.75 18 19.2516 18 19.875C18 20.4984 17.4984 21 16.875 21H13.125C12.5016 21 12 20.4984 12 19.875C12 19.2516 12.5016 18.75 13.125 18.75H14.25V15.75H13.125C12.5016 15.75 12 15.2484 12 14.625C12 14.0016 12.5016 13.5 13.125 13.5Z" fill="white" fill-opacity="0.31"/>
</svg>
